STARTFONT 2.1
FONT -FontForge-Calculator-Book-R-Normal--50-480-75-75-P-158-ISO10646-1
SIZE 48 75 75
FONTBOUNDINGBOX 54 57 -1 -12
COMMENT "Generated by fontforge, http://fontforge.sourceforge.net"
COMMENT "Calculator (c) Micah Jablonski. 2009. All Rights Reserved"
STARTPROPERTIES 39
FOUNDRY "FontForge"
FAMILY_NAME "Calculator"
WEIGHT_NAME "Book"
SLANT "R"
SETWIDTH_NAME "Normal"
ADD_STYLE_NAME ""
PIXEL_SIZE 50
POINT_SIZE 480
RESOLUTION_X 75
RESOLUTION_Y 75
SPACING "P"
AVERAGE_WIDTH 158
CHARSET_REGISTRY "ISO10646"
CHARSET_ENCODING "1"
FONTNAME_REGISTRY ""
CHARSET_COLLECTIONS "Symbol ISO10646-1"
FONT_NAME "Calculator"
FACE_NAME "Calculator"
COPYRIGHT "Calculator (c) Micah Jablonski. 2009. All Rights Reserved"
FONT_VERSION "1.1 January 1, 2009, initial release"
FONT_ASCENT 40
FONT_DESCENT 10
UNDERLINE_POSITION -7
UNDERLINE_THICKNESS 4
X_HEIGHT 14
CAP_HEIGHT 27
RAW_ASCENT 799
RAW_DESCENT 200
NORM_SPACE 15
RELATIVE_WEIGHT 40
RELATIVE_SETWIDTH 50
SUPERSCRIPT_X 0
SUPERSCRIPT_Y 23
SUPERSCRIPT_SIZE 32
SUBSCRIPT_X 0
SUBSCRIPT_Y 6
SUBSCRIPT_SIZE 32
AVG_LOWERCASE_WIDTH 114
AVG_UPPERCASE_WIDTH 130
ENDPROPERTIES
CHARS 243
STARTCHAR space
ENCODING 32
SWIDTH 292 0
DWIDTH 15 0
BBX 1 1 0 0
BITMAP
00
ENDCHAR
STARTCHAR exclam
ENCODING 33
SWIDTH 142 0
DWIDTH 7 0
BBX 3 32 2 0
BITMAP
60
E0
E0
E0
E0
E0
E0
E0
E0
E0
E0
E0
E0
40
40
E0
E0
E0
E0
E0
E0
E0
E0
E0
E0
E0
E0
40
00
00
E0
E0
ENDCHAR
STARTCHAR quotedbl
ENCODING 34
SWIDTH 240 0
DWIDTH 12 0
BBX 8 9 2 36
BITMAP
42
E7
E7
E7
E7
E7
E7
E7
42
ENDCHAR
STARTCHAR numbersign
ENCODING 35
SWIDTH 673 0
DWIDTH 34 0
BBX 29 29 2 1
BITMAP
00601000
00601800
00601800
00601800
00601800
00601800
00601800
00601800
7FFFF7F0
FFFFEFF8
7FFFDFF0
00601800
00601800
00601800
00601800
00601800
00601800
00601800
7FDFF7F8
7FBFEFF8
00601800
00601800
00601800
00601800
00601800
00601800
00601800
00601800
00001000
ENDCHAR
STARTCHAR dollar
ENCODING 36
SWIDTH 438 0
DWIDTH 22 0
BBX 17 40 2 -4
BITMAP
00C000
00C000
00C000
00C000
000000
3FFF00
5FFE80
600180
600180
60C080
60C000
60C000
60C000
60C000
60C000
60C000
60C000
600000
600000
5FFE00
3FFF00
1FFF80
000180
000180
00C180
00C180
00C180
00C180
00C180
00C180
00C180
40C180
E00180
600180
3FFF80
3FFF00
000000
00C000
00C000
00C000
ENDCHAR
STARTCHAR percent
ENCODING 37
SWIDTH 777 0
DWIDTH 39 0
BBX 34 36 2 0
BITMAP
0000008000
000001C000
0000018000
0000038000
1FC0030000
3FE0030000
5FD0070000
E030060000
E0300E0000
E0300C0000
E0300C0000
E030000000
E030100000
E030300000
5FD0300000
3FE0700000
0000600000
0000600000
0000E00000
0000C00000
0001C00000
0001807F00
000180FF80
0001817F40
00000380C0
00060380C0
00060380C0
00060380C0
000C0380C0
000C0380C0
001C0380C0
0018017F40
003800FF80
0030007F00
0030000000
0030000000
ENDCHAR
STARTCHAR ampersand
ENCODING 38
SWIDTH 913 0
DWIDTH 46 0
BBX 42 42 2 -5
BITMAP
001F80000000
003FC0000000
0076E0000000
00E070000000
01C038000000
03801C000000
03000C000000
020004000000
06000C000000
06000C000000
07000C000000
07801C000000
03C038000000
01E070000000
00F0E0000000
0077C0000000
0037803FC000
0016003FF800
0037001FF800
00F780007780
01E3C000EFC0
03C1E001C780
0780F0038000
0F0078070000
1E003C0E0000
3C001E1C0000
78000F380000
F00007F00000
E00003E00000
000001E00200
600003F00600
600007780E00
60000E3C1C00
60001C1E7800
7000380FF000
38007007E000
1C00E003C000
0E01C0000000
070380000000
03F700000000
00F600000000
000400000000
ENDCHAR
STARTCHAR quotesingle
ENCODING 39
SWIDTH 142 0
DWIDTH 7 0
BBX 3 14 2 25
BITMAP
40
E0
E0
E0
E0
E0
E0
E0
E0
E0
E0
E0
E0
40
ENDCHAR
STARTCHAR parenleft
ENCODING 40
SWIDTH 230 0
DWIDTH 12 0
BBX 7 53 2 -9
BITMAP
04
06
0E
0C
1C
18
38
38
30
70
60
60
40
E0
E0
E0
E0
E0
E0
E0
E0
E0
E0
E0
E0
40
40
E0
E0
E0
E0
E0
E0
E0
E0
E0
E0
E0
E0
E0
40
60
70
30
30
38
18
1C
0C
0C
06
06
02
ENDCHAR
STARTCHAR parenright
ENCODING 41
SWIDTH 228 0
DWIDTH 11 0
BBX 7 52 2 -9
BITMAP
60
60
70
30
30
38
18
1C
0C
0C
0C
04
06
06
06
06
06
06
06
06
06
06
06
06
06
04
04
06
06
06
06
06
06
06
06
06
06
06
06
04
04
0C
0C
1C
18
38
30
30
70
60
E0
40
ENDCHAR
STARTCHAR asterisk
ENCODING 42
SWIDTH 333 0
DWIDTH 17 0
BBX 11 13 3 25
BITMAP
0400
0C00
0C00
0C00
0C00
F7C0
FBE0
71C0
3B00
7B80
F1C0
E0C0
0040
ENDCHAR
STARTCHAR plus
ENCODING 43
SWIDTH 489 0
DWIDTH 24 0
BBX 19 19 3 8
BITMAP
00C000
00C000
00C000
00C000
00C000
00C000
00C000
00C000
FF1FC0
FFBFE0
7F1FC0
00C000
00C000
00C000
00C000
00C000
00C000
00C000
00C000
ENDCHAR
STARTCHAR comma
ENCODING 44
SWIDTH 142 0
DWIDTH 7 0
BBX 3 9 2 -5
BITMAP
40
E0
E0
E0
E0
E0
E0
E0
40
ENDCHAR
STARTCHAR hyphen
ENCODING 45
SWIDTH 283 0
DWIDTH 14 0
BBX 8 2 3 11
BITMAP
FF
FF
ENDCHAR
STARTCHAR period
ENCODING 46
SWIDTH 142 0
DWIDTH 7 0
BBX 3 3 2 1
BITMAP
E0
E0
E0
ENDCHAR
STARTCHAR slash
ENCODING 47
SWIDTH 436 0
DWIDTH 22 0
BBX 16 37 3 -3
BITMAP
0001
0003
0007
0007
0006
000E
000C
001C
001C
0018
0038
0030
0000
0060
00E0
00C0
00C0
01C0
0180
0380
0300
0300
0700
0600
0000
0400
0C00
1C00
1800
1800
3800
3000
7000
6000
E000
E000
4000
ENDCHAR
STARTCHAR zero
ENCODING 48
SWIDTH 435 0
DWIDTH 22 0
BBX 17 31 2 0
BITMAP
3FFE00
7FFE80
E00180
E00580
E00D80
E00D80
E01D80
E01980
E03980
E03180
E03180
E07180
E06180
E06180
404180
000000
408080
E18180
E18180
E38180
E30180
E70180
E70180
E60180
EE0180
EC0180
FC0180
EC0180
E00180
5FFE80
3FFF00
ENDCHAR
STARTCHAR one
ENCODING 49
SWIDTH 335 0
DWIDTH 17 0
BBX 12 30 2 0
BITMAP
1A00
3F00
7700
E700
C700
0700
0700
0700
0700
0700
0700
0700
0700
0200
0000
0300
0700
0700
0700
0700
0700
0700
0700
0700
0700
0700
0700
0700
7FF0
7DF0
ENDCHAR
STARTCHAR two
ENCODING 50
SWIDTH 436 0
DWIDTH 22 0
BBX 17 31 2 0
BITMAP
3FFF00
5FFE80
E00180
E00180
400180
000180
000180
000180
000180
000180
000180
000180
000180
000180
1FFE80
3FFF00
400000
E00000
E00000
E00000
E00000
E00000
E00000
E00000
E00000
E00000
E00000
E00000
E00000
7FFE00
3FFF00
ENDCHAR
STARTCHAR three
ENCODING 51
SWIDTH 413 0
DWIDTH 21 0
BBX 16 31 2 0
BITMAP
7FFE
7FFD
0003
0003
0003
0003
0003
0003
0003
0003
0003
0003
0003
0003
7FFF
FFFE
7FFF
0003
0003
0003
0003
0003
0003
0003
0003
0003
0003
0003
0003
7FFC
7FFC
ENDCHAR
STARTCHAR four
ENCODING 52
SWIDTH 435 0
DWIDTH 22 0
BBX 17 29 2 1
BITMAP
400080
E00180
E00180
E00180
E00180
E00180
E00180
E00180
E00180
E00180
E00180
E00180
E00180
5FFE80
3FFF00
1FFF80
000180
000180
000180
000180
000180
000180
000180
000180
000180
000180
000180
000180
000080
ENDCHAR
STARTCHAR five
ENCODING 53
SWIDTH 435 0
DWIDTH 22 0
BBX 17 31 2 0
BITMAP
3FFF00
5FFE00
E00000
E00000
E00000
E00000
E00000
E00000
E00000
E00000
E00000
E00000
E00000
E00000
5FFE00
3FFF00
000180
000180
000180
000180
000180
000180
000180
000180
000180
400180
E00180
E00180
E00180
7FFE80
3FFF00
ENDCHAR
STARTCHAR six
ENCODING 54
SWIDTH 435 0
DWIDTH 22 0
BBX 17 31 2 0
BITMAP
3FFF00
5FFE00
E00000
E00000
E00000
E00000
E00000
E00000
E00000
E00000
E00000
E00000
E00000
E00000
5FFE00
3FFF00
5FFF80
E00180
E00180
E00180
E00180
E00180
E00180
E00180
E00180
E00180
E00180
E00180
E00180
7FFE80
3FFF00
ENDCHAR
STARTCHAR seven
ENCODING 55
SWIDTH 409 0
DWIDTH 20 0
BBX 15 29 3 2
BITMAP
FFF8
FFFC
0006
0006
0006
0006
0006
0006
0006
0006
0006
0006
0006
0006
0006
0000
0006
0006
0006
0006
0006
0006
0006
0006
0006
0006
0006
0006
0006
ENDCHAR
STARTCHAR eight
ENCODING 56
SWIDTH 435 0
DWIDTH 22 0
BBX 17 31 2 0
BITMAP
3FFF00
5FFE80
E00180
E00180
E00180
E00180
E00180
E00180
E00180
E00180
E00180
E00180
E00180
E00180
5FFE80
3FFF00
5FFF80
E00180
E00180
E00180
E00180
E00180
E00180
E00180
E00180
E00180
E00180
E00180
E00180
7FFE80
3FFF00
ENDCHAR
STARTCHAR nine
ENCODING 57
SWIDTH 435 0
DWIDTH 22 0
BBX 17 31 2 0
BITMAP
3FFF00
5FFE80
E00180
E00180
E00180
E00180
E00180
E00180
E00180
E00180
E00180
E00180
E00180
E00180
5FFE80
3FFF00
000180
000180
000180
000180
000180
000180
000180
000180
000180
000180
000180
000180
000180
3FFE80
3FFF00
ENDCHAR
STARTCHAR colon
ENCODING 58
SWIDTH 142 0
DWIDTH 7 0
BBX 3 20 2 5
BITMAP
E0
E0
E0
00
00
00
00
00
00
00
00
00
00
00
00
00
00
00
E0
E0
ENDCHAR
STARTCHAR semicolon
ENCODING 59
SWIDTH 147 0
DWIDTH 7 0
BBX 3 26 2 -2
BITMAP
60
60
00
00
00
00
00
00
00
00
00
00
00
00
00
00
00
40
E0
E0
E0
E0
E0
E0
E0
40
ENDCHAR
STARTCHAR less
ENCODING 60
SWIDTH 337 0
DWIDTH 17 0
BBX 12 25 2 5
BITMAP
0010
0030
0070
00E0
01C0
0380
0700
0E00
1C00
3800
7000
E000
C000
C000
E000
7000
3800
1C00
0E00
0700
03C0
01E0
00F0
0070
0030
ENDCHAR
STARTCHAR equal
ENCODING 61
SWIDTH 380 0
DWIDTH 19 0
BBX 15 10 2 12
BITMAP
7FFC
FFFE
7FFC
0000
0000
0000
0000
7FFC
7FFC
3FF8
ENDCHAR
STARTCHAR greater
ENCODING 62
SWIDTH 337 0
DWIDTH 17 0
BBX 12 25 2 5
BITMAP
C000
E000
7000
3800
1C00
0E00
0700
0380
01C0
00E0
0070
0030
0010
0010
0030
0070
01E0
03C0
0780
0F00
1E00
3C00
7800
F000
E000
ENDCHAR
STARTCHAR question
ENCODING 63
SWIDTH 409 0
DWIDTH 20 0
BBX 15 32 3 1
BITMAP
FFF8
FFF8
0006
0006
0006
0006
0006
0006
0006
0006
0006
0006
0006
0006
0006
0078
00F8
0300
0300
0300
0300
0300
0300
0300
0300
0000
0000
0000
0000
0300
0300
0300
ENDCHAR
STARTCHAR at
ENCODING 64
SWIDTH 731 0
DWIDTH 37 0
BBX 32 32 2 -4
BITMAP
3FFE7FFC
7FFF7FFC
E0000003
E0000003
E0000003
E0000003
E0000003
E0000003
E0000C03
E0000C03
E0000C03
E00FF803
E01FF003
E0300C03
60300C03
00300C00
40300C02
E0300C03
E0300C03
E0300C03
E037FC03
E00FFFFC
E00FF3FC
E0000000
E0000000
E0000000
E0000000
E0000000
E0000000
5FFE7FFC
3FFF7FFE
1FFE3FFC
ENDCHAR
STARTCHAR A
ENCODING 65
SWIDTH 435 0
DWIDTH 22 0
BBX 17 30 2 1
BITMAP
3FFF00
5FFE80
E00180
E00180
E00180
E00180
E00180
E00180
E00180
E00180
E00180
E00180
E00180
E00180
5FFE80
3FFF00
5FFF80
E00180
E00180
E00180
E00180
E00180
E00180
E00180
E00180
E00180
E00180
E00180
E00180
400080
ENDCHAR
STARTCHAR B
ENCODING 66
SWIDTH 426 0
DWIDTH 21 0
BBX 17 31 2 0
BITMAP
3FE000
5FDC00
E01E00
E00F00
E00700
E00300
E00180
E00180
E00180
E00180
E00000
E00700
E00F00
E01E00
5FDC00
3FE000
5FDC00
E01E00
E00F00
E00700
E00000
E00180
E00180
E00180
E00000
E00300
E00700
E00E00
E01C00
7FF800
3FE000
ENDCHAR
STARTCHAR C
ENCODING 67
SWIDTH 436 0
DWIDTH 22 0
BBX 17 31 2 0
BITMAP
3FFF00
5FFE80
E00180
E00180
E00180
E00180
E00080
E00000
E00000
E00000
E00000
E00000
E00000
E00000
400000
000000
400000
E00000
E00000
E00000
E00000
E00000
E00000
E00000
E00180
E00180
E00180
E00180
E00180
7FFE00
3FFF00
ENDCHAR
STARTCHAR D
ENCODING 68
SWIDTH 475 0
DWIDTH 24 0
BBX 19 31 2 0
BITMAP
3FE000
5FDC00
E01E00
E00F00
E00780
E003C0
E001C0
E000C0
E00000
E00060
E00060
E00060
E00060
E00060
400060
000060
400060
E00060
E00060
E00060
E00060
E00060
E00000
E00040
E001C0
E003C0
E00780
E00F00
E01E00
7FFC00
3FE000
ENDCHAR
STARTCHAR E
ENCODING 69
SWIDTH 413 0
DWIDTH 21 0
BBX 16 32 2 0
BITMAP
1FFE
3FFF
4000
E000
E000
E000
E000
E000
E000
E000
E000
E000
E000
E000
E000
5FFE
7FFF
FFFE
E000
E000
E000
E000
E000
E000
E000
E000
E000
E000
E000
6000
3FFE
3FFE
ENDCHAR
STARTCHAR F
ENCODING 70
SWIDTH 413 0
DWIDTH 21 0
BBX 16 30 2 1
BITMAP
3FFF
7FFE
E000
E000
E000
E000
E000
E000
E000
E000
E000
E000
E000
E000
6000
3FFF
5FFE
E000
E000
E000
E000
E000
E000
E000
E000
E000
E000
E000
E000
4000
ENDCHAR
STARTCHAR G
ENCODING 71
SWIDTH 525 0
DWIDTH 26 0
BBX 22 31 2 0
BITMAP
3FFF00
5FFF80
E00180
E00180
E00180
E00180
E00000
E00000
E00000
E00000
E00000
E00000
E00000
E00000
401E78
001FFC
400F80
E00180
E00180
E00180
E00180
E00180
E00180
E00180
E00180
E00180
E00180
E00180
E00180
7FFE80
3FFF00
ENDCHAR
STARTCHAR H
ENCODING 72
SWIDTH 435 0
DWIDTH 22 0
BBX 17 29 2 1
BITMAP
400080
E00180
E00180
E00180
E00180
E00180
E00180
E00180
E00180
E00180
E00180
E00180
E00180
5FFE80
3FFF00
400180
E00180
E00180
E00180
E00180
E00180
E00180
E00180
E00180
E00180
E00180
E00180
E00180
400080
ENDCHAR
STARTCHAR I
ENCODING 73
SWIDTH 353 0
DWIDTH 18 0
BBX 12 32 3 0
BITMAP
F1E0
F9F0
0600
0600
0600
0600
0600
0600
0600
0600
0600
0600
0600
0600
0600
0000
0400
0600
0600
0600
0600
0600
0600
0600
0600
0600
0600
0600
0600
0600
F9F0
F9F0
ENDCHAR
STARTCHAR J
ENCODING 74
SWIDTH 525 0
DWIDTH 26 0
BBX 21 32 2 0
BITMAP
1FC7F8
3FE7F8
001800
001800
001800
001800
001800
001800
001800
001800
001800
001800
001800
001800
001800
001000
000000
001800
001800
001800
001800
001800
601800
E01800
E01800
E01800
E01800
E01800
E01800
E01800
7FE000
3FE000
ENDCHAR
STARTCHAR K
ENCODING 75
SWIDTH 416 0
DWIDTH 21 0
BBX 16 29 2 1
BITMAP
4000
E001
E003
E007
E00E
E01C
E038
E070
E0E0
E3C0
E780
EF00
EE00
4C00
0000
4C00
EE00
E700
E380
E1C0
E0E0
E070
E038
E01C
E00F
E007
E003
E000
4000
ENDCHAR
STARTCHAR L
ENCODING 76
SWIDTH 408 0
DWIDTH 20 0
BBX 15 30 2 0
BITMAP
4000
E000
E000
E000
E000
E000
E000
E000
E000
E000
E000
E000
E000
4000
4000
E000
E000
E000
E000
E000
E000
E000
E000
E000
E000
E000
E000
6000
3FFE
3FFE
ENDCHAR
STARTCHAR M
ENCODING 77
SWIDTH 435 0
DWIDTH 22 0
BBX 17 29 2 1
BITMAP
500680
F80780
FC0F80
EC0D80
EC1D80
E61980
E61980
E73980
E33180
E3F180
E1E180
E1E180
E00180
400080
000000
400180
E00180
E00180
E00180
E00180
E00180
E00180
E00180
E00180
E00180
E00180
E00180
E00180
400080
ENDCHAR
STARTCHAR N
ENCODING 78
SWIDTH 435 0
DWIDTH 22 0
BBX 17 29 2 1
BITMAP
400080
F00180
F80180
FC0180
EC0180
EC0180
EE0180
E60180
E70180
E30180
E30180
E38180
E18180
400180
006000
406080
E06180
E07180
E03180
E03980
E01980
E01D80
E00D80
E00D80
E00D80
E00180
E00180
E00180
400080
ENDCHAR
STARTCHAR O
ENCODING 79
SWIDTH 435 0
DWIDTH 22 0
BBX 17 31 2 0
BITMAP
3FFF00
5FFE80
E00180
E00180
E00180
E00180
E00180
E00180
E00180
E00180
E00180
E00180
E00180
E00180
400080
000000
400180
E00180
E00180
E00180
E00180
E00180
E00180
E00180
E00180
E00180
E00180
E00180
E00180
7FFE80
3FFF00
ENDCHAR
STARTCHAR P
ENCODING 80
SWIDTH 435 0
DWIDTH 22 0
BBX 17 30 2 1
BITMAP
3FFF00
5FFE80
E00180
E00180
E00180
E00180
E00180
E00180
E00180
E00180
E00180
E00180
E00180
E00180
5FFE80
3FFF00
5FFE00
E00000
E00000
E00000
E00000
E00000
E00000
E00000
E00000
E00000
E00000
E00000
E00000
400000
ENDCHAR
STARTCHAR Q
ENCODING 81
SWIDTH 538 0
DWIDTH 27 0
BBX 22 31 2 0
BITMAP
3FFF00
5FFE80
E00180
E00180
E00180
E00180
E00180
E00180
E00180
E00180
E00180
E00180
E00180
E00180
400080
000000
400180
E00180
E00180
E00180
E00180
E03980
E03D80
E01F80
E00F80
E001B0
E001B8
E001BC
E0019C
7FFE8C
3FFF00
ENDCHAR
STARTCHAR R
ENCODING 82
SWIDTH 477 0
DWIDTH 24 0
BBX 19 30 2 1
BITMAP
3FFE00
7FFE80
E00180
E00180
E00180
E00180
E00180
E00180
E00180
E00180
E00180
E00180
E00180
E00180
400180
3FFF00
5FFE00
E00200
E00300
E00300
E00380
E00180
E00180
E001C0
E000C0
E000E0
E00060
E00060
E00020
400000
ENDCHAR
STARTCHAR S
ENCODING 83
SWIDTH 435 0
DWIDTH 22 0
BBX 17 31 2 0
BITMAP
3FFF00
5FFE80
E00180
E00180
E00180
E00000
E00000
E00000
E00000
E00000
E00000
E00000
E00000
E00000
5FFE00
3FFF00
000180
000180
000180
000180
000180
000180
000180
000180
000180
400180
E00180
E00180
E00180
7FFE80
3FFF00
ENDCHAR
STARTCHAR T
ENCODING 84
SWIDTH 500 0
DWIDTH 25 0
BBX 20 31 3 1
BITMAP
001FE0
FF3FF0
FF5FE0
00E000
00E000
00E000
00E000
00E000
00E000
00E000
00E000
00E000
00E000
00E000
00E000
004000
000000
006000
00E000
00E000
00E000
00E000
00E000
00E000
00E000
00E000
00E000
00E000
00E000
00E000
004000
ENDCHAR
STARTCHAR U
ENCODING 85
SWIDTH 435 0
DWIDTH 22 0
BBX 17 30 2 0
BITMAP
400080
E00180
E00180
E00180
E00180
E00180
E00180
E00180
E00180
E00180
E00180
E00180
E00180
400080
000000
400180
E00180
E00180
E00180
E00180
E00180
E00180
E00180
E00180
E00180
E00180
E00180
E00180
7FFE80
3FFF00
ENDCHAR
STARTCHAR V
ENCODING 86
SWIDTH 550 0
DWIDTH 28 0
BBX 23 24 2 3
BITMAP
400006
E00006
60000E
70000C
30000C
30001C
380018
180038
1C0030
0C0070
0C0070
040020
000040
0300C0
0300C0
0381C0
018180
01C380
00C300
00C300
00E700
006600
007E00
003400
ENDCHAR
STARTCHAR W
ENCODING 87
SWIDTH 435 0
DWIDTH 22 0
BBX 17 29 2 1
BITMAP
400080
E00180
E00180
E00180
E00180
E00180
E00180
E00180
E00180
E00180
E00180
E00180
E00180
400080
000000
404180
E1E180
E3E180
E33180
E73180
E63980
E61980
EE1D80
EC0D80
FC0D80
F80F80
F80780
F00380
400080
ENDCHAR
STARTCHAR X
ENCODING 88
SWIDTH 338 0
DWIDTH 17 0
BBX 12 26 2 2
BITMAP
4010
E030
6030
7070
3060
30E0
38E0
18C0
1DC0
0D80
0D80
0500
0000
0000
0D80
0D80
1D80
1DC0
18C0
38E0
3060
7060
7070
6030
6030
4000
ENDCHAR
STARTCHAR Y
ENCODING 89
SWIDTH 355 0
DWIDTH 18 0
BBX 12 28 3 1
BITMAP
0010
C030
C030
C070
E060
60E0
70E0
30C0
31C0
1980
1B80
1980
0000
0000
0400
0600
0600
0600
0600
0600
0600
0600
0600
0600
0600
0600
0600
0600
ENDCHAR
STARTCHAR Z
ENCODING 90
SWIDTH 426 0
DWIDTH 21 0
BBX 16 31 3 0
BITMAP
7FFC
7FFE
0003
0007
0006
000E
000C
001C
001C
0018
0038
0030
0030
00C0
01C0
03C0
0380
0300
1800
1800
3800
3000
3000
7000
6000
E000
C000
C000
C000
FFFC
7FFC
ENDCHAR
STARTCHAR bracketleft
ENCODING 91
SWIDTH 237 0
DWIDTH 12 0
BBX 7 32 2 0
BITMAP
1C
3E
5C
E0
E0
E0
E0
E0
E0
E0
E0
E0
E0
E0
E0
40
00
40
E0
E0
E0
E0
E0
E0
E0
E0
E0
E0
E0
E0
7E
3E
ENDCHAR
STARTCHAR backslash
ENCODING 92
SWIDTH 426 0
DWIDTH 21 0
BBX 17 37 2 -3
BITMAP
400000
E00000
600000
700000
300000
300000
380000
180000
1C0000
0C0000
0C0000
040000
000000
030000
030000
038000
018000
018000
01C000
00C000
00E000
006000
006000
006000
000000
001800
001800
001C00
000C00
000E00
000600
000600
000700
000300
000380
000180
000080
ENDCHAR
STARTCHAR bracketright
ENCODING 93
SWIDTH 236 0
DWIDTH 12 0
BBX 7 32 2 0
BITMAP
78
FC
7E
06
06
06
06
06
06
06
06
06
06
06
06
02
00
06
06
06
06
06
06
06
06
06
06
06
06
06
7C
7C
ENDCHAR
STARTCHAR asciicircum
ENCODING 94
SWIDTH 347 0
DWIDTH 17 0
BBX 12 12 3 24
BITMAP
1B00
1B00
3B80
3980
31C0
70C0
60C0
E060
E060
C070
C030
8010
ENDCHAR
STARTCHAR underscore
ENCODING 95
SWIDTH 673 0
DWIDTH 34 0
BBX 28 3 3 -5
BITMAP
FFF9FFE0
FFFFFFF0
7FF9FFE0
ENDCHAR
STARTCHAR grave
ENCODING 96
SWIDTH 240 0
DWIDTH 12 0
BBX 8 7 2 28
BITMAP
E0
70
38
1C
0E
07
03
ENDCHAR
STARTCHAR a
ENCODING 97
SWIDTH 430 0
DWIDTH 22 0
BBX 17 17 2 0
BITMAP
3FFE00
3FFF00
1FFF80
000180
000180
000180
000180
000180
1FCD80
3FFF80
5FCD80
E00180
E00180
E00180
600180
3FFE00
3FFE00
ENDCHAR
STARTCHAR b
ENCODING 98
SWIDTH 435 0
DWIDTH 22 0
BBX 17 30 2 0
BITMAP
400000
E00000
E00000
E00000
E00000
E00000
E00000
E00000
E00000
E00000
E00000
E00000
E00000
5FFE00
3FFF00
5FFF80
E00180
E00180
E00180
E00180
E00180
E00180
E00180
E00180
E00180
E00180
E00180
E00180
7FFE80
3FFF00
ENDCHAR
STARTCHAR c
ENCODING 99
SWIDTH 408 0
DWIDTH 20 0
BBX 16 17 2 0
BITMAP
1FFE
3FFF
5FFE
E000
E000
E000
E000
E000
E000
E000
E000
E000
E000
E000
E000
7FFE
3FFF
ENDCHAR
STARTCHAR d
ENCODING 100
SWIDTH 435 0
DWIDTH 22 0
BBX 17 30 2 0
BITMAP
000080
000180
000180
000180
000180
000180
000180
000180
000180
000180
000180
000180
000180
1FFE80
3FFF00
5FFF80
E00180
E00180
E00180
E00180
E00180
E00180
E00180
E00180
E00180
E00180
E00180
E00180
7FFE80
3FFF00
ENDCHAR
STARTCHAR e
ENCODING 101
SWIDTH 440 0
DWIDTH 22 0
BBX 18 17 2 0
BITMAP
1FFE00
3FFF00
5FFE80
E001C0
E001C0
E001C0
E00180
ECFE00
FFFF00
ECFE00
E00000
E00000
E00000
E00000
E00000
7FFE00
3FFF00
ENDCHAR
STARTCHAR f
ENCODING 102
SWIDTH 410 0
DWIDTH 21 0
BBX 15 30 3 1
BITMAP
03FE
05FC
0C00
0C00
0C00
0C00
0C00
0C00
0C00
0C00
0C00
0C00
0C00
0C00
F5E0
FBE0
7DC0
0C00
0C00
0C00
0C00
0C00
0C00
0C00
0C00
0C00
0C00
0C00
0C00
0400
ENDCHAR
STARTCHAR g
ENCODING 103
SWIDTH 436 0
DWIDTH 22 0
BBX 17 27 2 -10
BITMAP
1FFE00
3FFF00
5FFF80
E00180
E00180
E00180
E00180
E00180
E00180
E00180
E00180
E00180
E00180
E00180
E00180
7FFE80
3FFF80
000180
000180
000180
000180
000180
000180
000180
1FFF80
3FFF00
1FFE00
ENDCHAR
STARTCHAR h
ENCODING 104
SWIDTH 435 0
DWIDTH 22 0
BBX 17 29 2 1
BITMAP
400000
E00000
E00000
E00000
E00000
E00000
E00000
E00000
E00000
E00000
E00000
E00000
E00000
5FFE00
3FFF00
5FFF80
E00180
E00180
E00180
E00180
E00180
E00180
E00180
E00180
E00180
E00180
E00180
E00180
400080
ENDCHAR
STARTCHAR i
ENCODING 105
SWIDTH 143 0
DWIDTH 7 0
BBX 3 18 2 2
BITMAP
40
E0
E0
40
40
E0
E0
E0
E0
E0
E0
E0
E0
E0
E0
E0
E0
60
ENDCHAR
STARTCHAR j
ENCODING 106
SWIDTH 333 0
DWIDTH 17 0
BBX 12 29 2 -10
BITMAP
0010
0030
0030
0010
0000
0030
0030
0030
0030
0030
0030
0030
0030
0030
0030
0030
0030
0030
0000
0030
0030
0030
0030
0030
4030
E030
E030
7FC0
3FE0
ENDCHAR
STARTCHAR k
ENCODING 107
SWIDTH 392 0
DWIDTH 20 0
BBX 15 29 2 1
BITMAP
4000
E000
E000
E000
E000
E000
E000
E000
E000
E000
E01C
E03C
E078
40F0
01E0
59C0
FD80
EE00
E700
E380
E1C0
E0F0
E078
E03C
E01E
E00E
E006
E000
4000
ENDCHAR
STARTCHAR l
ENCODING 108
SWIDTH 142 0
DWIDTH 7 0
BBX 3 29 2 1
BITMAP
40
E0
E0
E0
E0
E0
E0
E0
E0
E0
E0
E0
E0
40
00
40
E0
E0
E0
E0
E0
E0
E0
E0
E0
E0
E0
E0
40
ENDCHAR
STARTCHAR m
ENCODING 109
SWIDTH 562 0
DWIDTH 28 0
BBX 24 15 2 1
BITMAP
3FE7FC
5FFBFE
E01807
E01807
E01807
E01807
E01807
E01807
E01807
E01807
E01807
E01807
E01807
E01807
400802
ENDCHAR
STARTCHAR n
ENCODING 110
SWIDTH 435 0
DWIDTH 22 0
BBX 17 16 2 1
BITMAP
3FFE00
3FFF00
400180
E00180
E00180
E00180
E00180
E00180
E00180
E00180
E00180
E00180
E00180
E00180
E00180
400080
ENDCHAR
STARTCHAR o
ENCODING 111
SWIDTH 435 0
DWIDTH 22 0
BBX 17 17 2 0
BITMAP
1FFE00
3FFF00
5FFF80
E00180
E00180
E00180
E00180
E00180
E00180
E00180
E00180
E00180
E00180
E00180
E00180
7FFE80
3FFF00
ENDCHAR
STARTCHAR p
ENCODING 112
SWIDTH 435 0
DWIDTH 22 0
BBX 17 25 2 -8
BITMAP
1FFE00
3FFF00
5FFF80
E00180
E00180
E00180
E00180
E00180
E00180
E00180
E00180
E00180
E00180
E00180
E00180
7FFE80
3FFF00
600000
600000
600000
600000
600000
600000
600000
600000
ENDCHAR
STARTCHAR q
ENCODING 113
SWIDTH 528 0
DWIDTH 26 0
BBX 22 26 2 -9
BITMAP
1FFE00
3FFF00
5FFF80
E00180
E00180
E00180
E00180
E00180
E00180
E00180
E00180
E00180
E00180
E00180
E00180
7FFE80
3FFF00
000180
000180
000180
000180
00018C
00019C
0001B8
0001B0
000020
ENDCHAR
STARTCHAR r
ENCODING 114
SWIDTH 317 0
DWIDTH 16 0
BBX 11 16 2 1
BITMAP
1FE0
3FE0
5FC0
E000
E000
E000
E000
E000
E000
E000
E000
E000
E000
E000
E000
4000
ENDCHAR
STARTCHAR s
ENCODING 115
SWIDTH 328 0
DWIDTH 16 0
BBX 12 21 2 0
BITMAP
3FE0
7FE0
E000
E000
E000
E000
E000
E000
E000
6000
3FE0
3FF0
0030
0030
0030
0030
0030
0030
0030
3FD0
3FC0
ENDCHAR
STARTCHAR t
ENCODING 116
SWIDTH 336 0
DWIDTH 17 0
BBX 11 29 3 1
BITMAP
0400
0C00
0C00
0C00
0C00
0C00
0C00
0C00
0C00
0C00
0C00
0C00
0C00
F5E0
FBE0
7DC0
0C00
0C00
0C00
0C00
0C00
0C00
0C00
0C00
0C00
0C00
0C00
0C00
0400
ENDCHAR
STARTCHAR u
ENCODING 117
SWIDTH 353 0
DWIDTH 18 0
BBX 13 15 2 0
BITMAP
4018
E018
E018
E018
E018
E018
E018
E018
E018
E018
E018
E018
E018
5FE0
1FE0
ENDCHAR
STARTCHAR v
ENCODING 118
SWIDTH 354 0
DWIDTH 18 0
BBX 13 12 2 1
BITMAP
4018
E018
6038
7038
3030
3070
3860
18E0
1CC0
0CC0
0DC0
0480
ENDCHAR
STARTCHAR w
ENCODING 119
SWIDTH 435 0
DWIDTH 22 0
BBX 17 15 2 0
BITMAP
400000
E0C180
E0C180
E0C180
E0C180
E0C180
E0C180
E0C180
E0C180
E0C180
E0C180
E0C180
E0C180
7EDF80
1F3E00
ENDCHAR
STARTCHAR x
ENCODING 120
SWIDTH 396 0
DWIDTH 20 0
BBX 15 15 2 0
BITMAP
C002
E006
700E
383C
1C78
0EF0
07E0
03C0
03C0
07E0
0E70
1C38
781C
F00E
E006
ENDCHAR
STARTCHAR y
ENCODING 121
SWIDTH 353 0
DWIDTH 18 0
BBX 12 25 3 -12
BITMAP
0010
8030
C030
C070
E060
60E0
70C0
30C0
31C0
3980
1B80
1900
0000
0600
0600
0E00
0C00
1C00
1800
1800
3800
3000
7000
6000
4000
ENDCHAR
STARTCHAR z
ENCODING 122
SWIDTH 380 0
DWIDTH 19 0
BBX 13 17 3 0
BITMAP
FFF8
FFF8
7FF0
0038
0078
00F0
01E0
0380
0700
0E00
1C00
3800
7000
6000
4000
FFF8
FFF8
ENDCHAR
STARTCHAR braceleft
ENCODING 123
SWIDTH 432 0
DWIDTH 22 0
BBX 17 46 2 -7
BITMAP
00FF80
01FF80
030000
030000
030000
030000
030000
030000
030000
030000
030000
030000
030000
030000
010000
030000
070000
0E0000
1C0000
380000
700000
600000
000000
E00000
F00000
780000
3C0000
1E0000
0F0000
070000
010000
030000
030000
030000
030000
030000
030000
030000
030000
030000
030000
030000
030000
010000
00FF80
007F80
ENDCHAR
STARTCHAR bar
ENCODING 124
SWIDTH 142 0
DWIDTH 7 0
BBX 3 43 2 -6
BITMAP
40
E0
E0
E0
E0
E0
E0
E0
E0
E0
E0
E0
E0
60
00
40
E0
E0
E0
E0
E0
E0
E0
E0
E0
E0
E0
E0
40
40
E0
E0
E0
E0
E0
E0
E0
E0
E0
E0
E0
E0
40
ENDCHAR
STARTCHAR braceright
ENCODING 125
SWIDTH 427 0
DWIDTH 21 0
BBX 16 46 3 -7
BITMAP
FF80
7F80
00C0
00C0
00C0
00C0
00C0
00C0
00C0
00C0
00C0
00C0
00C0
00C0
00C0
0000
0060
0070
0038
001C
000F
0007
0003
0003
0007
000E
001C
0038
0070
0060
0000
00C0
00C0
00C0
00C0
00C0
00C0
00C0
00C0
00C0
00C0
00C0
00C0
00C0
FF00
FF00
ENDCHAR
STARTCHAR asciitilde
ENCODING 126
SWIDTH 562 0
DWIDTH 28 0
BBX 24 8 2 14
BITMAP
03C003
07E007
0E700E
1C381C
381C38
700E70
E00760
C00340
ENDCHAR
STARTCHAR space.dup1
ENCODING 160
SWIDTH 292 0
DWIDTH 15 0
BBX 1 1 0 0
BITMAP
00
ENDCHAR
STARTCHAR exclamdown
ENCODING 161
SWIDTH 97 0
DWIDTH 5 0
BBX 1 1 0 0
BITMAP
00
ENDCHAR
STARTCHAR cent
ENCODING 162
SWIDTH 97 0
DWIDTH 5 0
BBX 1 1 0 0
BITMAP
00
ENDCHAR
STARTCHAR sterling
ENCODING 163
SWIDTH 525 0
DWIDTH 26 0
BBX 22 36 2 0
BITMAP
001E00
00FFF0
03FFF0
07C070
0F8030
0F0010
1E0000
1E0000
1E0000
3E0000
3E0000
3E0000
3E0000
3E0000
1E0000
1E0000
1E0000
1F0000
FFFF80
FFFF80
078000
078000
03C000
03C000
03C000
03C000
03C000
07C000
078000
078000
0F000C
0F0008
1E0018
3FFFF0
3FFFF0
7FFFE0
ENDCHAR
STARTCHAR currency
ENCODING 164
SWIDTH 482 0
DWIDTH 24 0
BBX 18 19 3 8
BITMAP
400080
E0C1C0
F7FBC0
7FFF80
3F1F00
3C0F00
380780
700380
700380
700380
700380
700380
380780
3C0F00
3F1F00
7FFF80
F7FBC0
E0C1C0
400080
ENDCHAR
STARTCHAR yen
ENCODING 165
SWIDTH 721 0
DWIDTH 36 0
BBX 31 30 3 0
BITMAP
F8000600
FFE00FFE
3F0001F0
1F0001E0
0F0001C0
07800380
07C00700
03C00600
01E00E00
01F01C00
FFF03FFC
FFF83FFC
003C6000
003CC000
001F8000
000FFFF8
FFFFFFFC
000F0000
00070000
00070000
00070000
00070000
00070000
00070000
00070000
00070000
000F0000
000F0000
001FC000
00FFF800
ENDCHAR
STARTCHAR brokenbar
ENCODING 166
SWIDTH 142 0
DWIDTH 7 0
BBX 3 38 2 -5
BITMAP
60
E0
E0
E0
E0
E0
E0
E0
E0
E0
E0
E0
E0
40
00
00
00
00
00
00
00
00
00
00
40
E0
E0
E0
E0
E0
E0
E0
E0
E0
E0
E0
E0
40
ENDCHAR
STARTCHAR section
ENCODING 167
SWIDTH 432 0
DWIDTH 22 0
BBX 17 46 2 -10
BITMAP
01C000
0FFE00
1E7E00
381E00
700600
700600
700600
F00000
F80000
FC0000
7E0000
7F8000
3FC000
3FF000
1FFC00
07FE00
03FF00
0FFF00
1C3F80
380F80
700780
700380
700380
700380
780300
7C0700
7E0E00
7F9E00
3FFC00
1FF800
0FFC00
07FE00
01FF00
007F80
003F80
000F80
000780
000380
000380
000380
600380
600700
700F00
781E00
7FFC00
3FF000
ENDCHAR
STARTCHAR dieresis
ENCODING 168
SWIDTH 387 0
DWIDTH 19 0
BBX 15 6 2 28
BITMAP
1008
381C
7C3E
FC7E
783C
3018
ENDCHAR
STARTCHAR copyright
ENCODING 169
SWIDTH 823 0
DWIDTH 41 0
BBX 37 37 2 -1
BITMAP
0000F80000
000FFF8000
003E03E000
00F0007800
01C0001C00
0380000600
06007D8300
0C07FF8180
1C0F03C0C0
183C00C0C0
3078004060
3070000060
60F0000030
60E0000030
61E0000030
41E0000010
41E0000018
C1E0000018
C1E0000018
C1E0000018
41E0000018
41E0000010
61E0000030
60F0000030
60F0000030
3078003060
303C003060
181E0070C0
1C0F00E1C0
0E03FFC180
07007C0300
0380000E00
01C0001C00
00F0007800
003F03E000
000FFF8000
0000700000
ENDCHAR
STARTCHAR ordfeminine
ENCODING 170
SWIDTH 97 0
DWIDTH 5 0
BBX 1 1 0 0
BITMAP
00
ENDCHAR
STARTCHAR guillemotleft
ENCODING 171
SWIDTH 432 0
DWIDTH 22 0
BBX 16 15 3 4
BITMAP
0181
0303
0606
0E1C
1C38
7878
F0F0
F1E0
78F0
3838
1C1C
0E0C
0706
0303
0081
ENDCHAR
STARTCHAR logicalnot
ENCODING 172
SWIDTH 513 0
DWIDTH 26 0
BBX 21 12 2 7
BITMAP
FFFFF8
FFFFF8
FFFFF8
000018
000018
000018
000018
000018
000018
000018
000018
000018
ENDCHAR
STARTCHAR hyphen.dup2
ENCODING 173
SWIDTH 283 0
DWIDTH 14 0
BBX 8 2 3 11
BITMAP
FF
FF
ENDCHAR
STARTCHAR registered
ENCODING 174
SWIDTH 823 0
DWIDTH 41 0
BBX 37 37 2 -1
BITMAP
0000F80000
000FFF8000
003E03E000
00F0007800
01C0001C00
0380000600
0600000300
0C1FF80180
1C1FFE00C0
180F9F00C0
3007878060
3007838060
600783C030
600783C030
600783C030
400783C010
400783C018
C00783C018
C007838018
C007878018
4007CF0018
4007FE0010
6007BE0030
60079E0030
60078F0030
3007878060
300787C060
180F83E0C0
1C1FEFF9C0
0E1FEFF980
0700000300
0380000E00
01C0001C00
00F0007800
003F03E000
000FFF8000
0000700000
ENDCHAR
STARTCHAR macron
ENCODING 175
SWIDTH 97 0
DWIDTH 5 0
BBX 1 1 0 0
BITMAP
00
ENDCHAR
STARTCHAR degree
ENCODING 176
SWIDTH 375 0
DWIDTH 19 0
BBX 14 14 2 21
BITMAP
0FE0
1FF0
3838
701C
600C
E00C
C00C
E00C
600C
601C
3038
3FF0
0FE0
0100
ENDCHAR
STARTCHAR plusminus
ENCODING 177
SWIDTH 97 0
DWIDTH 5 0
BBX 1 1 0 0
BITMAP
00
ENDCHAR
STARTCHAR uni00B2
ENCODING 178
SWIDTH 97 0
DWIDTH 5 0
BBX 1 1 0 0
BITMAP
00
ENDCHAR
STARTCHAR uni00B3
ENCODING 179
SWIDTH 97 0
DWIDTH 5 0
BBX 1 1 0 0
BITMAP
00
ENDCHAR
STARTCHAR acute
ENCODING 180
SWIDTH 334 0
DWIDTH 17 0
BBX 11 9 3 26
BITMAP
00E0
01E0
03E0
07C0
0F80
1E00
3800
7000
C000
ENDCHAR
STARTCHAR mu
ENCODING 181
SWIDTH 97 0
DWIDTH 5 0
BBX 1 1 0 0
BITMAP
00
ENDCHAR
STARTCHAR paragraph
ENCODING 182
SWIDTH 511 0
DWIDTH 26 0
BBX 21 35 2 0
BITMAP
03FFF8
0FFFF8
1FF0C0
3FF0C0
7FF0C0
7FF0C0
7FF0C0
FFF0C0
FFF0C0
FFF0C0
7FF0C0
7FF0C0
7FF0C0
3FF0C0
1FF0C0
0FF0C0
03F0C0
0030C0
0030C0
0030C0
0030C0
0030C0
0030C0
0030C0
0030C0
0030C0
0030C0
0030C0
0030C0
0030C0
0030C0
0030C0
0030C0
0030C0
0030C0
ENDCHAR
STARTCHAR periodcentered
ENCODING 183
SWIDTH 225 0
DWIDTH 11 0
BBX 7 7 2 14
BITMAP
10
38
7C
FE
7E
3C
18
ENDCHAR
STARTCHAR cedilla
ENCODING 184
SWIDTH 302 0
DWIDTH 15 0
BBX 11 10 2 -10
BITMAP
0800
1800
1F00
1FC0
0FC0
01E0
01E0
C1E0
FFC0
FF80
ENDCHAR
STARTCHAR uni00B9
ENCODING 185
SWIDTH 97 0
DWIDTH 5 0
BBX 1 1 0 0
BITMAP
00
ENDCHAR
STARTCHAR ordmasculine
ENCODING 186
SWIDTH 97 0
DWIDTH 5 0
BBX 1 1 0 0
BITMAP
00
ENDCHAR
STARTCHAR guillemotright
ENCODING 187
SWIDTH 432 0
DWIDTH 22 0
BBX 17 15 2 4
BITMAP
C0C000
606000
307000
383800
1C1C00
0E0E00
078F00
078780
0F0F00
0E1E00
1C1C00
383000
706000
60C000
808000
ENDCHAR
STARTCHAR onequarter
ENCODING 188
SWIDTH 97 0
DWIDTH 5 0
BBX 1 1 0 0
BITMAP
00
ENDCHAR
STARTCHAR onehalf
ENCODING 189
SWIDTH 97 0
DWIDTH 5 0
BBX 1 1 0 0
BITMAP
00
ENDCHAR
STARTCHAR threequarters
ENCODING 190
SWIDTH 97 0
DWIDTH 5 0
BBX 1 1 0 0
BITMAP
00
ENDCHAR
STARTCHAR questiondown
ENCODING 191
SWIDTH 97 0
DWIDTH 5 0
BBX 1 1 0 0
BITMAP
00
ENDCHAR
STARTCHAR Agrave
ENCODING 192
SWIDTH 97 0
DWIDTH 5 0
BBX 1 1 0 0
BITMAP
00
ENDCHAR
STARTCHAR Aacute
ENCODING 193
SWIDTH 97 0
DWIDTH 5 0
BBX 1 1 0 0
BITMAP
00
ENDCHAR
STARTCHAR Acircumflex
ENCODING 194
SWIDTH 97 0
DWIDTH 5 0
BBX 1 1 0 0
BITMAP
00
ENDCHAR
STARTCHAR Atilde
ENCODING 195
SWIDTH 97 0
DWIDTH 5 0
BBX 1 1 0 0
BITMAP
00
ENDCHAR
STARTCHAR Adieresis
ENCODING 196
SWIDTH 97 0
DWIDTH 5 0
BBX 1 1 0 0
BITMAP
00
ENDCHAR
STARTCHAR Aring
ENCODING 197
SWIDTH 97 0
DWIDTH 5 0
BBX 1 1 0 0
BITMAP
00
ENDCHAR
STARTCHAR AE
ENCODING 198
SWIDTH 97 0
DWIDTH 5 0
BBX 1 1 0 0
BITMAP
00
ENDCHAR
STARTCHAR Ccedilla
ENCODING 199
SWIDTH 97 0
DWIDTH 5 0
BBX 1 1 0 0
BITMAP
00
ENDCHAR
STARTCHAR Egrave
ENCODING 200
SWIDTH 97 0
DWIDTH 5 0
BBX 1 1 0 0
BITMAP
00
ENDCHAR
STARTCHAR Eacute
ENCODING 201
SWIDTH 97 0
DWIDTH 5 0
BBX 1 1 0 0
BITMAP
00
ENDCHAR
STARTCHAR Ecircumflex
ENCODING 202
SWIDTH 97 0
DWIDTH 5 0
BBX 1 1 0 0
BITMAP
00
ENDCHAR
STARTCHAR Edieresis
ENCODING 203
SWIDTH 97 0
DWIDTH 5 0
BBX 1 1 0 0
BITMAP
00
ENDCHAR
STARTCHAR Igrave
ENCODING 204
SWIDTH 97 0
DWIDTH 5 0
BBX 1 1 0 0
BITMAP
00
ENDCHAR
STARTCHAR Iacute
ENCODING 205
SWIDTH 97 0
DWIDTH 5 0
BBX 1 1 0 0
BITMAP
00
ENDCHAR
STARTCHAR Icircumflex
ENCODING 206
SWIDTH 97 0
DWIDTH 5 0
BBX 1 1 0 0
BITMAP
00
ENDCHAR
STARTCHAR Idieresis
ENCODING 207
SWIDTH 97 0
DWIDTH 5 0
BBX 1 1 0 0
BITMAP
00
ENDCHAR
STARTCHAR Eth
ENCODING 208
SWIDTH 97 0
DWIDTH 5 0
BBX 1 1 0 0
BITMAP
00
ENDCHAR
STARTCHAR Ntilde
ENCODING 209
SWIDTH 97 0
DWIDTH 5 0
BBX 1 1 0 0
BITMAP
00
ENDCHAR
STARTCHAR Ograve
ENCODING 210
SWIDTH 97 0
DWIDTH 5 0
BBX 1 1 0 0
BITMAP
00
ENDCHAR
STARTCHAR Oacute
ENCODING 211
SWIDTH 97 0
DWIDTH 5 0
BBX 1 1 0 0
BITMAP
00
ENDCHAR
STARTCHAR Ocircumflex
ENCODING 212
SWIDTH 97 0
DWIDTH 5 0
BBX 1 1 0 0
BITMAP
00
ENDCHAR
STARTCHAR Otilde
ENCODING 213
SWIDTH 97 0
DWIDTH 5 0
BBX 1 1 0 0
BITMAP
00
ENDCHAR
STARTCHAR Odieresis
ENCODING 214
SWIDTH 97 0
DWIDTH 5 0
BBX 1 1 0 0
BITMAP
00
ENDCHAR
STARTCHAR multiply
ENCODING 215
SWIDTH 445 0
DWIDTH 22 0
BBX 18 17 2 9
BITMAP
300300
780780
FC0FC0
7E1F80
3F3F00
1FFE00
0FFC00
07F800
03F000
07F800
0FFC00
1FFE00
3F3F00
7E1F80
FC0FC0
780780
300300
ENDCHAR
STARTCHAR Oslash
ENCODING 216
SWIDTH 97 0
DWIDTH 5 0
BBX 1 1 0 0
BITMAP
00
ENDCHAR
STARTCHAR Ugrave
ENCODING 217
SWIDTH 97 0
DWIDTH 5 0
BBX 1 1 0 0
BITMAP
00
ENDCHAR
STARTCHAR Uacute
ENCODING 218
SWIDTH 97 0
DWIDTH 5 0
BBX 1 1 0 0
BITMAP
00
ENDCHAR
STARTCHAR Ucircumflex
ENCODING 219
SWIDTH 97 0
DWIDTH 5 0
BBX 1 1 0 0
BITMAP
00
ENDCHAR
STARTCHAR Udieresis
ENCODING 220
SWIDTH 97 0
DWIDTH 5 0
BBX 1 1 0 0
BITMAP
00
ENDCHAR
STARTCHAR Yacute
ENCODING 221
SWIDTH 97 0
DWIDTH 5 0
BBX 1 1 0 0
BITMAP
00
ENDCHAR
STARTCHAR Thorn
ENCODING 222
SWIDTH 97 0
DWIDTH 5 0
BBX 1 1 0 0
BITMAP
00
ENDCHAR
STARTCHAR germandbls
ENCODING 223
SWIDTH 97 0
DWIDTH 5 0
BBX 1 1 0 0
BITMAP
00
ENDCHAR
STARTCHAR agrave
ENCODING 224
SWIDTH 97 0
DWIDTH 5 0
BBX 1 1 0 0
BITMAP
00
ENDCHAR
STARTCHAR aacute
ENCODING 225
SWIDTH 97 0
DWIDTH 5 0
BBX 1 1 0 0
BITMAP
00
ENDCHAR
STARTCHAR acircumflex
ENCODING 226
SWIDTH 97 0
DWIDTH 5 0
BBX 1 1 0 0
BITMAP
00
ENDCHAR
STARTCHAR atilde
ENCODING 227
SWIDTH 97 0
DWIDTH 5 0
BBX 1 1 0 0
BITMAP
00
ENDCHAR
STARTCHAR adieresis
ENCODING 228
SWIDTH 97 0
DWIDTH 5 0
BBX 1 1 0 0
BITMAP
00
ENDCHAR
STARTCHAR aring
ENCODING 229
SWIDTH 97 0
DWIDTH 5 0
BBX 1 1 0 0
BITMAP
00
ENDCHAR
STARTCHAR ae
ENCODING 230
SWIDTH 97 0
DWIDTH 5 0
BBX 1 1 0 0
BITMAP
00
ENDCHAR
STARTCHAR ccedilla
ENCODING 231
SWIDTH 97 0
DWIDTH 5 0
BBX 1 1 0 0
BITMAP
00
ENDCHAR
STARTCHAR egrave
ENCODING 232
SWIDTH 97 0
DWIDTH 5 0
BBX 1 1 0 0
BITMAP
00
ENDCHAR
STARTCHAR eacute
ENCODING 233
SWIDTH 97 0
DWIDTH 5 0
BBX 1 1 0 0
BITMAP
00
ENDCHAR
STARTCHAR ecircumflex
ENCODING 234
SWIDTH 97 0
DWIDTH 5 0
BBX 1 1 0 0
BITMAP
00
ENDCHAR
STARTCHAR edieresis
ENCODING 235
SWIDTH 97 0
DWIDTH 5 0
BBX 1 1 0 0
BITMAP
00
ENDCHAR
STARTCHAR igrave
ENCODING 236
SWIDTH 97 0
DWIDTH 5 0
BBX 1 1 0 0
BITMAP
00
ENDCHAR
STARTCHAR iacute
ENCODING 237
SWIDTH 97 0
DWIDTH 5 0
BBX 1 1 0 0
BITMAP
00
ENDCHAR
STARTCHAR icircumflex
ENCODING 238
SWIDTH 97 0
DWIDTH 5 0
BBX 1 1 0 0
BITMAP
00
ENDCHAR
STARTCHAR idieresis
ENCODING 239
SWIDTH 97 0
DWIDTH 5 0
BBX 1 1 0 0
BITMAP
00
ENDCHAR
STARTCHAR eth
ENCODING 240
SWIDTH 97 0
DWIDTH 5 0
BBX 1 1 0 0
BITMAP
00
ENDCHAR
STARTCHAR ntilde
ENCODING 241
SWIDTH 97 0
DWIDTH 5 0
BBX 1 1 0 0
BITMAP
00
ENDCHAR
STARTCHAR ograve
ENCODING 242
SWIDTH 97 0
DWIDTH 5 0
BBX 1 1 0 0
BITMAP
00
ENDCHAR
STARTCHAR oacute
ENCODING 243
SWIDTH 97 0
DWIDTH 5 0
BBX 1 1 0 0
BITMAP
00
ENDCHAR
STARTCHAR ocircumflex
ENCODING 244
SWIDTH 97 0
DWIDTH 5 0
BBX 1 1 0 0
BITMAP
00
ENDCHAR
STARTCHAR otilde
ENCODING 245
SWIDTH 97 0
DWIDTH 5 0
BBX 1 1 0 0
BITMAP
00
ENDCHAR
STARTCHAR odieresis
ENCODING 246
SWIDTH 97 0
DWIDTH 5 0
BBX 1 1 0 0
BITMAP
00
ENDCHAR
STARTCHAR divide
ENCODING 247
SWIDTH 513 0
DWIDTH 26 0
BBX 21 23 2 6
BITMAP
003000
007800
00FC00
00FC00
007800
003000
000000
000000
000000
000000
FFFFF8
FFFFF8
FFFFF8
000000
000000
000000
000000
007000
00F800
00FC00
00FC00
007800
003000
ENDCHAR
STARTCHAR oslash
ENCODING 248
SWIDTH 97 0
DWIDTH 5 0
BBX 1 1 0 0
BITMAP
00
ENDCHAR
STARTCHAR ugrave
ENCODING 249
SWIDTH 97 0
DWIDTH 5 0
BBX 1 1 0 0
BITMAP
00
ENDCHAR
STARTCHAR uacute
ENCODING 250
SWIDTH 97 0
DWIDTH 5 0
BBX 1 1 0 0
BITMAP
00
ENDCHAR
STARTCHAR ucircumflex
ENCODING 251
SWIDTH 97 0
DWIDTH 5 0
BBX 1 1 0 0
BITMAP
00
ENDCHAR
STARTCHAR udieresis
ENCODING 252
SWIDTH 97 0
DWIDTH 5 0
BBX 1 1 0 0
BITMAP
00
ENDCHAR
STARTCHAR yacute
ENCODING 253
SWIDTH 97 0
DWIDTH 5 0
BBX 1 1 0 0
BITMAP
00
ENDCHAR
STARTCHAR thorn
ENCODING 254
SWIDTH 97 0
DWIDTH 5 0
BBX 1 1 0 0
BITMAP
00
ENDCHAR
STARTCHAR ydieresis
ENCODING 255
SWIDTH 97 0
DWIDTH 5 0
BBX 1 1 0 0
BITMAP
00
ENDCHAR
STARTCHAR dotlessi
ENCODING 305
SWIDTH 325 0
DWIDTH 16 0
BBX 12 24 2 0
BITMAP
0100
0300
0700
0F00
3F00
FF00
1F00
0F00
0F00
0F00
0F00
0F00
0F00
0F00
0F00
0F00
0F00
0F00
0F00
0F00
0F00
0F80
3FC0
7FF0
ENDCHAR
STARTCHAR circumflex
ENCODING 710
SWIDTH 394 0
DWIDTH 20 0
BBX 14 9 3 26
BITMAP
0780
0F80
0FC0
1FE0
3CE0
3870
7038
E018
C00C
ENDCHAR
STARTCHAR caron
ENCODING 711
SWIDTH 394 0
DWIDTH 20 0
BBX 14 9 3 26
BITMAP
C00C
6018
7038
38F0
3DE0
1FE0
0FC0
0F80
0780
ENDCHAR
STARTCHAR uni02C9
ENCODING 713
SWIDTH 355 0
DWIDTH 18 0
BBX 13 3 2 29
BITMAP
FFF8
FFF8
FFF8
ENDCHAR
STARTCHAR breve
ENCODING 728
SWIDTH 390 0
DWIDTH 20 0
BBX 14 7 3 26
BITMAP
800C
C00C
E018
7FF8
7FF0
3FE0
0F80
ENDCHAR
STARTCHAR dotaccent
ENCODING 729
SWIDTH 208 0
DWIDTH 10 0
BBX 6 6 2 28
BITMAP
10
38
7C
FC
78
30
ENDCHAR
STARTCHAR ring
ENCODING 730
SWIDTH 276 0
DWIDTH 14 0
BBX 9 9 2 26
BITMAP
3E00
7F00
7380
E180
E180
6180
7F80
3F00
1E00
ENDCHAR
STARTCHAR ogonek
ENCODING 731
SWIDTH 284 0
DWIDTH 14 0
BBX 9 10 2 -10
BITMAP
0600
0C00
1800
3000
7000
7000
F000
F880
7F80
3F00
ENDCHAR
STARTCHAR tilde
ENCODING 732
SWIDTH 385 0
DWIDTH 19 0
BBX 15 7 2 27
BITMAP
0006
1F04
3FFC
7FFC
73F8
4000
C000
ENDCHAR
STARTCHAR hungarumlaut
ENCODING 733
SWIDTH 393 0
DWIDTH 20 0
BBX 14 9 3 26
BITMAP
0E1C
1E3C
1E3C
3C78
3870
70E0
60C0
E180
C180
ENDCHAR
STARTCHAR semicolon.dup3
ENCODING 894
SWIDTH 147 0
DWIDTH 7 0
BBX 3 26 2 -2
BITMAP
60
60
00
00
00
00
00
00
00
00
00
00
00
00
00
00
00
40
E0
E0
E0
E0
E0
E0
E0
40
ENDCHAR
STARTCHAR endash
ENCODING 8211
SWIDTH 589 0
DWIDTH 30 0
BBX 25 3 2 10
BITMAP
FFFFFF80
FFFFFF80
FFFFFF80
ENDCHAR
STARTCHAR emdash
ENCODING 8212
SWIDTH 1103 0
DWIDTH 55 0
BBX 51 3 2 10
BITMAP
FFFFFFFFFFFFE0
FFFFFFFFFFFFE0
FFFFFFFFFFFFE0
ENDCHAR
STARTCHAR quoteleft
ENCODING 8216
SWIDTH 226 0
DWIDTH 11 0
BBX 7 15 4 23
BITMAP
C0
C0
C0
C0
C0
C0
C0
C0
C0
C0
C0
C0
C0
3E
3E
ENDCHAR
STARTCHAR quoteright
ENCODING 8217
SWIDTH 226 0
DWIDTH 11 0
BBX 7 15 0 25
BITMAP
F8
F8
06
06
06
06
06
06
06
06
06
06
06
06
06
ENDCHAR
STARTCHAR quotesinglbase
ENCODING 8218
SWIDTH 226 0
DWIDTH 11 0
BBX 7 15 0 -7
BITMAP
F8
7A
06
06
06
06
06
06
06
06
06
06
06
06
06
ENDCHAR
STARTCHAR quotedblleft
ENCODING 8220
SWIDTH 398 0
DWIDTH 20 0
BBX 15 16 -1 23
BITMAP
4040
E0E0
E0E0
E0E0
E0E0
E0E0
E0E0
E0E0
E0E0
E0E0
E0E0
E0E0
E0E0
C040
3E3E
1E1E
ENDCHAR
STARTCHAR quotedblright
ENCODING 8221
SWIDTH 398 0
DWIDTH 20 0
BBX 15 16 1 23
BITMAP
F0F8
F0F8
0C06
0C06
0C06
0C06
0C06
0C06
0C06
0C06
0C06
0C06
0C06
0C06
0C06
0004
ENDCHAR
STARTCHAR quotedblbase
ENCODING 8222
SWIDTH 398 0
DWIDTH 20 0
BBX 16 14 2 -7
BITMAP
1808
3C1C
7C3E
FE7E
7E7E
3E1F
1E0E
0E0E
0C0E
1C0E
180C
1818
3038
6030
ENDCHAR
STARTCHAR dagger
ENCODING 8224
SWIDTH 529 0
DWIDTH 26 0
BBX 22 42 2 -7
BITMAP
007C00
00FC00
00FE00
00FC00
007C00
007800
003800
303038
7C30FC
7F93FC
FFFFFC
7F97FC
7E30FC
383038
003800
007800
007C00
00FC00
00FC00
00FC00
00FC00
007C00
007C00
007800
007800
007800
007800
003800
003800
003800
003800
003000
003000
003000
003000
003000
003000
001000
001000
001000
001000
001000
ENDCHAR
STARTCHAR daggerdbl
ENCODING 8225
SWIDTH 529 0
DWIDTH 26 0
BBX 22 42 2 -7
BITMAP
007C00
00FC00
00FE00
00FC00
007C00
007800
003800
303038
7C30FC
7F93FC
FFFFFC
7F97FC
7E30FC
383038
003000
003000
003800
007800
007800
00FC00
00FE00
00FC00
007C00
007800
003800
003800
003000
003000
7C3078
7F11FC
FFFFFC
FFFFFC
7E31FC
783078
003800
007800
007C00
00FC00
00FC00
00FE00
00FC00
003800
ENDCHAR
STARTCHAR bullet
ENCODING 8226
SWIDTH 392 0
DWIDTH 20 0
BBX 15 15 2 10
BITMAP
07C0
1FF0
3FF8
3FFC
7FFE
7FFE
FFFE
FFFE
FFFE
7FFE
7FFE
3FFC
3FF8
1FF0
07C0
ENDCHAR
STARTCHAR ellipsis
ENCODING 8230
SWIDTH 892 0
DWIDTH 45 0
BBX 40 7 2 0
BITMAP
1000080000
38001C001E
7C003E001E
FE007E003F
7E007E003F
3C003C001E
180018000C
ENDCHAR
STARTCHAR guilsinglleft
ENCODING 8249
SWIDTH 279 0
DWIDTH 14 0
BBX 9 15 3 4
BITMAP
0180
0300
0600
0E00
1C00
7800
F000
F000
7800
3800
1C00
0E00
0700
0300
0080
ENDCHAR
STARTCHAR guilsinglright
ENCODING 8250
SWIDTH 279 0
DWIDTH 14 0
BBX 9 15 2 4
BITMAP
C000
6000
3000
3800
1C00
0E00
0780
0780
0F00
0E00
1C00
3800
7000
6000
8000
ENDCHAR
STARTCHAR fraction
ENCODING 8260
SWIDTH 610 0
DWIDTH 31 0
BBX 25 36 3 -1
BITMAP
00000380
00000300
00000600
00000E00
00000C00
00001800
00003800
00003000
00007000
0000E000
0000C000
0001C000
00038000
00030000
00070000
00060000
000C0000
001C0000
00180000
00300000
00700000
00600000
00E00000
01C00000
01800000
03800000
07000000
06000000
0E000000
0C000000
18000000
38000000
30000000
60000000
E0000000
C0000000
ENDCHAR
STARTCHAR franc
ENCODING 8355
SWIDTH 602 0
DWIDTH 30 0
BBX 26 35 2 0
BITMAP
FFFFFE00
1FF00F00
07C00300
07C00180
07C00080
07C000C0
07C00000
07C00000
07C00000
07C00000
07C00000
07C00000
07C00400
07C00400
07C00C00
07FFFC00
07FFFC00
07FFFC00
07C00C00
07C00400
07C00400
07C00000
07C00000
07C00000
07C00000
7FFC0000
07C00000
07C00000
07C00000
07C00000
07C00000
07C00000
07C00000
1FF00000
FFFC0000
ENDCHAR
STARTCHAR lira
ENCODING 8356
SWIDTH 524 0
DWIDTH 26 0
BBX 22 36 2 0
BITMAP
000C00
00FFF0
03FBF0
07C070
0F8030
0F0010
1E0000
1E0000
1E0000
3E0000
3E0000
3E0000
3E0000
3E0000
1E0000
1E0000
1E0000
FFFF80
0F0000
7FFF80
7FFF80
078000
03C000
03C000
03C000
03C000
03C000
07C000
078000
078000
0F000C
0F0008
1E0018
3FFFF0
3FFFF0
7FFFE0
ENDCHAR
STARTCHAR peseta
ENCODING 8359
SWIDTH 1040 0
DWIDTH 52 0
BBX 48 36 2 -1
BITMAP
FFFFE0000000
1FC1F0000000
07C03C000000
07C01C030000
07C01E030000
07C00F030000
07C00F030000
07C007030000
07C007870000
07C007870000
07C0078F0000
07C007FFFFF8
07C007FFFFFC
07C0078F1C1C
07C0078F180C
07C0070F380C
07C0070F3800
07C00F0F3800
07C00E0F3C00
07E01E0F3F00
07E01C0F1F80
07F0380F1FE0
07CFE00F0FF8
07C1000F03FC
07C0000F00FE
07C0000F007E
07C0000F001E
07C0000F000F
07C0000FC007
07C0000F4006
07C0000F6006
07C0000F300E
07C0000FB00C
1FF00007FC3C
FFFC0003FFF0
000000000380
ENDCHAR
STARTCHAR Euro
ENCODING 8364
SWIDTH 647 0
DWIDTH 32 0
BBX 27 36 3 0
BITMAP
000FFB00
003E1F00
00700700
00E00380
01C00180
03800080
07000080
07000000
0E000000
0E000000
1E000000
1C000000
1C000000
3C000000
3C000000
7FFFFE00
7FFFFE00
3C000000
FFFFFC00
FFFFFC00
3C000000
3C000000
3C000000
1C000000
1E000000
1E000000
0E000000
0F000000
07000060
07800060
03C00060
01E000E0
00F000E0
007803C0
001F9F80
0007FC00
ENDCHAR
STARTCHAR afii61352
ENCODING 8470
SWIDTH 97 0
DWIDTH 5 0
BBX 1 1 0 0
BITMAP
00
ENDCHAR
STARTCHAR trademark
ENCODING 8482
SWIDTH 97 0
DWIDTH 5 0
BBX 1 1 0 0
BITMAP
00
ENDCHAR
STARTCHAR partialdiff
ENCODING 8706
SWIDTH 523 0
DWIDTH 26 0
BBX 22 37 2 -1
BITMAP
0C0000
0FC000
01F000
007800
003C00
000E00
000700
000780
000380
0001C0
0000E0
0000E0
00FC70
038F70
0607F0
0C03F8
1C01F8
3800F8
3800F8
7800F8
78007C
78007C
78007C
F8007C
F8003C
F8003C
78003C
780038
780078
7C0078
3C0070
3E0070
1E00E0
0F00C0
078180
03FF00
007800
ENDCHAR
STARTCHAR Delta
ENCODING 8710
SWIDTH 627 0
DWIDTH 31 0
BBX 26 34 3 0
BITMAP
000C0000
000C0000
001C0000
001E0000
001E0000
003E0000
00370000
00670000
00678000
00438000
00C38000
00C3C000
0081C000
0181C000
0181E000
0300E000
0300E000
02007000
06007000
06007800
04003800
0C003800
0C003C00
18001C00
18001C00
10000E00
30000E00
30000E00
20000700
60000700
60000780
FFFFFF80
FFFFFF80
FFFFFFC0
ENDCHAR
STARTCHAR product
ENCODING 8719
SWIDTH 796 0
DWIDTH 40 0
BBX 35 45 2 -10
BITMAP
FFFFFFFFE0
1FF000FF80
07C0003E00
07C0003E00
07C0003E00
07C0003E00
07C0003E00
07C0003E00
07C0003E00
07C0003E00
07C0003E00
07C0003E00
07C0003E00
07C0003E00
07C0003E00
07C0003E00
07C0003E00
07C0003E00
07C0003E00
07C0003E00
07C0003E00
07C0003E00
07C0003E00
07C0003E00
07C0003E00
07C0003E00
07C0003E00
07C0003E00
07C0003E00
07C0003E00
07C0003E00
07C0003E00
07C0003E00
07C0003E00
07C0003E00
07C0003E00
07C0003E00
07C0003E00
07C0003E00
07C0003E00
07C0003E00
07C0003E00
07C0003E00
0FE0007F00
FFFC07FFE0
ENDCHAR
STARTCHAR summation
ENCODING 8721
SWIDTH 605 0
DWIDTH 30 0
BBX 26 45 2 -10
BITMAP
FFFFFE00
7F000F00
1F800300
0FC00180
0FE00080
07E000C0
03F00000
01F80000
00FC0000
00FC0000
007E0000
003F0000
001F8000
001FC000
000FC000
0007E000
0003F000
0003F800
0001F800
0000FC00
00007E00
00003F00
00003E00
00001C00
00003800
00007000
00007000
0000E000
0001C000
00038000
00070000
000E0000
000C0000
001C0000
00380000
00700000
00E00000
01C00000
03800000
030000C0
06000080
0E000180
1C000100
38000700
FFFFFF00
ENDCHAR
STARTCHAR minus
ENCODING 8722
SWIDTH 513 0
DWIDTH 26 0
BBX 21 3 2 16
BITMAP
FFFFF8
FFFFF8
FFFFF8
ENDCHAR
STARTCHAR fraction.dup4
ENCODING 8725
SWIDTH 610 0
DWIDTH 31 0
BBX 25 36 3 -1
BITMAP
00000380
00000300
00000600
00000E00
00000C00
00001800
00003800
00003000
00007000
0000E000
0000C000
0001C000
00038000
00030000
00070000
00060000
000C0000
001C0000
00180000
00300000
00700000
00600000
00E00000
01C00000
01800000
03800000
07000000
06000000
0E000000
0C000000
18000000
38000000
30000000
60000000
E0000000
C0000000
ENDCHAR
STARTCHAR periodcentered.dup5
ENCODING 8729
SWIDTH 225 0
DWIDTH 11 0
BBX 7 7 2 14
BITMAP
10
38
7C
FE
7E
3C
18
ENDCHAR
STARTCHAR radical
ENCODING 8730
SWIDTH 611 0
DWIDTH 31 0
BBX 25 41 3 0
BITMAP
00000780
00000F80
00000E00
00001C00
00001C00
00003800
00003800
00007000
00007000
0000E000
0000E000
0001C000
0001C000
00038000
00038000
00070000
00070000
000E0000
000E0000
001C0000
001C0000
003C0000
00380000
00780000
00700000
00700000
00E00000
00E00000
01C00000
01C00000
03800000
43800000
C7000000
E7000000
6E000000
7E000000
7C000000
3C000000
38000000
18000000
10000000
ENDCHAR
STARTCHAR infinity
ENCODING 8734
SWIDTH 535 0
DWIDTH 27 0
BBX 22 19 2 8
BITMAP
000180
0007E0
1E0FF0
3F9FF8
3F9C18
70F80C
607004
406004
802000
806004
806004
006004
40E00C
61F01C
3F9C78
3F9FF8
1E0FF0
0007E0
000100
ENDCHAR
STARTCHAR integral
ENCODING 8747
SWIDTH 492 0
DWIDTH 25 0
BBX 20 49 2 -7
BITMAP
0000F0
0001F0
0003F0
000630
000610
000C00
000C00
001C00
001C00
001800
003800
003800
003800
003800
007800
007800
007800
007800
007800
007800
007000
007000
007000
007000
00F000
00F000
00F000
00F000
00F000
00F000
00E000
00E000
00E000
00E000
00E000
01E000
01E000
01E000
01C000
01C000
01C000
018000
038000
030000
C30000
C60000
FC0000
F80000
700000
ENDCHAR
STARTCHAR approxequal
ENCODING 8776
SWIDTH 508 0
DWIDTH 25 0
BBX 21 17 2 9
BITMAP
000008
0F8018
3FE038
7FFFF8
FFFFF8
F07FF0
C00FC0
800000
800000
000008
1FC018
3FF878
7FFFF8
FDFFF0
E03FE0
C00780
800000
ENDCHAR
STARTCHAR lessequal
ENCODING 8804
SWIDTH 513 0
DWIDTH 26 0
BBX 21 30 2 0
BITMAP
000018
000038
0000F8
0003F8
000FF0
001FC0
007F80
01FE00
07F800
0FF000
3FC000
FF0000
FC0000
FF0000
3FC000
0FE000
07F800
01FE00
007F80
001FC0
000FF0
0003F8
0000F8
000038
000018
000000
FFFFF8
FFFFF8
FFFFF8
FFFFF8
ENDCHAR
STARTCHAR greaterequal
ENCODING 8805
SWIDTH 513 0
DWIDTH 26 0
BBX 21 31 2 0
BITMAP
800000
C00000
F00000
FC0000
FF0000
7F8000
1FE000
07F800
01FC00
00FF00
003FC0
000FF0
0003F8
0001F8
0003F8
000FF0
003FC0
007F00
01FE00
07F800
1FE000
7F8000
FF0000
FC0000
F00000
C00000
800000
FFFFF8
FFFFF8
FFFFF8
FFFFF8
ENDCHAR
STARTCHAR uniF001
ENCODING 61441
SWIDTH 97 0
DWIDTH 5 0
BBX 1 1 0 0
BITMAP
00
ENDCHAR
STARTCHAR uniF002
ENCODING 61442
SWIDTH 97 0
DWIDTH 5 0
BBX 1 1 0 0
BITMAP
00
ENDCHAR
STARTCHAR uniF001.dup6
ENCODING 64257
SWIDTH 97 0
DWIDTH 5 0
BBX 1 1 0 0
BITMAP
00
ENDCHAR
STARTCHAR uniF002.dup7
ENCODING 64258
SWIDTH 97 0
DWIDTH 5 0
BBX 1 1 0 0
BITMAP
00
ENDCHAR
STARTCHAR .notdef
ENCODING -1
SWIDTH 505 0
DWIDTH 25 0
BBX 21 35 2 0
BITMAP
FFFFF8
C00018
C00018
C00018
C00018
C0F818
C3FC18
C21E18
C00E18
C00E18
C00E18
C00E18
C01C18
C01C18
C03818
C03018
C07018
C06018
C0C018
C0C018
C08018
C08018
C0C018
C04018
C00018
C04018
C0E018
C1F018
C0E018
C04018
C00018
C00018
C00018
C00018
FFFFF8
ENDCHAR
STARTCHAR .null
ENCODING -1
SWIDTH 97 0
DWIDTH 5 0
BBX 1 1 0 0
BITMAP
00
ENDCHAR
STARTCHAR nonmarkingreturn
ENCODING -1
SWIDTH 97 0
DWIDTH 5 0
BBX 1 1 0 0
BITMAP
00
ENDCHAR
ENDFONT
